<svg xmlns="http://www.w3.org/2000/svg" xmlns:xlink="http://www.w3.org/1999/xlink" width="170" zoomAndPan="magnify" viewBox="0 0 127.5 30.000001" height="40" preserveAspectRatio="xMidYMid meet" version="1.0"><defs><g/></defs><g fill="#ffffff" fill-opacity="1"><g transform="translate(5.890415, 23.316891)"><g><path d="M 15.8125 -2.265625 C 15.144531 -1.472656 14.203125 -0.851562 12.984375 -0.40625 C 11.765625 0.03125 10.414062 0.25 8.9375 0.25 C 7.382812 0.25 6.019531 -0.0859375 4.84375 -0.765625 C 3.675781 -1.441406 2.773438 -2.425781 2.140625 -3.71875 C 1.503906 -5.007812 1.175781 -6.523438 1.15625 -8.265625 L 1.15625 -9.5 C 1.15625 -11.289062 1.457031 -12.835938 2.0625 -14.140625 C 2.664062 -15.453125 3.535156 -16.457031 4.671875 -17.15625 C 5.816406 -17.851562 7.15625 -18.203125 8.6875 -18.203125 C 10.8125 -18.203125 12.472656 -17.691406 13.671875 -16.671875 C 14.867188 -15.660156 15.582031 -14.1875 15.8125 -12.25 L 12.203125 -12.25 C 12.035156 -13.269531 11.671875 -14.019531 11.109375 -14.5 C 10.546875 -14.976562 9.773438 -15.21875 8.796875 -15.21875 C 7.535156 -15.21875 6.578125 -14.742188 5.921875 -13.796875 C 5.265625 -12.847656 4.929688 -11.441406 4.921875 -9.578125 L 4.921875 -8.4375 C 4.921875 -6.550781 5.273438 -5.125 5.984375 -4.15625 C 6.703125 -3.195312 7.753906 -2.71875 9.140625 -2.71875 C 10.523438 -2.71875 11.515625 -3.015625 12.109375 -3.609375 L 12.109375 -6.703125 L 8.734375 -6.703125 L 8.734375 -9.4375 L 15.8125 -9.4375 Z M 15.8125 -2.265625 "/></g></g></g><g fill="#ffffff" fill-opacity="1"><g transform="translate(23.091128, 23.316891)"><g><path d="M 7.21875 -7.203125 L 5.296875 -5.125 L 5.296875 0 L 1.609375 0 L 1.609375 -17.953125 L 5.296875 -17.953125 L 5.296875 -9.8125 L 6.921875 -12.046875 L 11.5 -17.953125 L 16.046875 -17.953125 L 9.671875 -9.96875 L 16.234375 0 L 11.84375 0 Z M 7.21875 -7.203125 "/></g></g></g><g fill="#ffffff" fill-opacity="1"><g transform="translate(39.120466, 23.316891)"><g/></g></g><g fill="#ffffff" fill-opacity="1"><g transform="translate(45.408899, 23.316891)"><g><path d="M 15.6875 -5.984375 C 15.550781 -4.046875 14.835938 -2.519531 13.546875 -1.40625 C 12.265625 -0.300781 10.570312 0.25 8.46875 0.25 C 6.164062 0.25 4.351562 -0.523438 3.03125 -2.078125 C 1.71875 -3.628906 1.0625 -5.753906 1.0625 -8.453125 L 1.0625 -9.5625 C 1.0625 -11.28125 1.363281 -12.796875 1.96875 -14.109375 C 2.582031 -15.429688 3.453125 -16.441406 4.578125 -17.140625 C 5.710938 -17.847656 7.023438 -18.203125 8.515625 -18.203125 C 10.585938 -18.203125 12.253906 -17.644531 13.515625 -16.53125 C 14.785156 -15.425781 15.519531 -13.867188 15.71875 -11.859375 L 12.015625 -11.859375 C 11.929688 -13.015625 11.609375 -13.851562 11.046875 -14.375 C 10.492188 -14.90625 9.648438 -15.171875 8.515625 -15.171875 C 7.285156 -15.171875 6.363281 -14.726562 5.75 -13.84375 C 5.132812 -12.957031 4.820312 -11.585938 4.8125 -9.734375 L 4.8125 -8.375 C 4.8125 -6.4375 5.101562 -5.019531 5.6875 -4.125 C 6.28125 -3.226562 7.207031 -2.78125 8.46875 -2.78125 C 9.613281 -2.78125 10.46875 -3.039062 11.03125 -3.5625 C 11.59375 -4.082031 11.914062 -4.890625 12 -5.984375 Z M 15.6875 -5.984375 "/></g></g></g><g fill="#ffffff" fill-opacity="1"><g transform="translate(61.931447, 23.316891)"><g><path d="M 0.8125 -6.796875 C 0.8125 -8.117188 1.066406 -9.296875 1.578125 -10.328125 C 2.085938 -11.367188 2.820312 -12.171875 3.78125 -12.734375 C 4.738281 -13.304688 5.847656 -13.59375 7.109375 -13.59375 C 8.910156 -13.59375 10.378906 -13.039062 11.515625 -11.9375 C 12.660156 -10.832031 13.296875 -9.335938 13.421875 -7.453125 L 13.453125 -6.53125 C 13.453125 -4.488281 12.878906 -2.847656 11.734375 -1.609375 C 10.597656 -0.367188 9.066406 0.25 7.140625 0.25 C 5.210938 0.25 3.675781 -0.363281 2.53125 -1.59375 C 1.382812 -2.832031 0.8125 -4.515625 0.8125 -6.640625 Z M 4.375 -6.53125 C 4.375 -5.269531 4.613281 -4.300781 5.09375 -3.625 C 5.570312 -2.957031 6.253906 -2.625 7.140625 -2.625 C 8.003906 -2.625 8.675781 -2.953125 9.15625 -3.609375 C 9.644531 -4.273438 9.890625 -5.335938 9.890625 -6.796875 C 9.890625 -8.035156 9.644531 -8.992188 9.15625 -9.671875 C 8.675781 -10.359375 7.992188 -10.703125 7.109375 -10.703125 C 6.242188 -10.703125 5.570312 -10.363281 5.09375 -9.6875 C 4.613281 -9.007812 4.375 -7.957031 4.375 -6.53125 Z M 4.375 -6.53125 "/></g></g></g><g fill="#ffffff" fill-opacity="1"><g transform="translate(76.209888, 23.316891)"><g><path d="M 2.34375 0 L 2.34375 -10.71875 L 0.359375 -10.71875 L 0.359375 -13.34375 L 2.34375 -13.34375 L 2.34375 -14.46875 C 2.34375 -15.96875 2.769531 -17.128906 3.625 -17.953125 C 4.488281 -18.785156 5.691406 -19.203125 7.234375 -19.203125 C 7.734375 -19.203125 8.335938 -19.117188 9.046875 -18.953125 L 9.015625 -16.1875 C 8.710938 -16.257812 8.347656 -16.296875 7.921875 -16.296875 C 6.585938 -16.296875 5.921875 -15.664062 5.921875 -14.40625 L 5.921875 -13.34375 L 8.5625 -13.34375 L 8.5625 -10.71875 L 5.921875 -10.71875 L 5.921875 0 Z M 2.34375 0 "/></g></g></g><g fill="#ffffff" fill-opacity="1"><g transform="translate(85.260299, 23.316891)"><g><path d="M 2.34375 0 L 2.34375 -10.71875 L 0.359375 -10.71875 L 0.359375 -13.34375 L 2.34375 -13.34375 L 2.34375 -14.46875 C 2.34375 -15.96875 2.769531 -17.128906 3.625 -17.953125 C 4.488281 -18.785156 5.691406 -19.203125 7.234375 -19.203125 C 7.734375 -19.203125 8.335938 -19.117188 9.046875 -18.953125 L 9.015625 -16.1875 C 8.710938 -16.257812 8.347656 -16.296875 7.921875 -16.296875 C 6.585938 -16.296875 5.921875 -15.664062 5.921875 -14.40625 L 5.921875 -13.34375 L 8.5625 -13.34375 L 8.5625 -10.71875 L 5.921875 -10.71875 L 5.921875 0 Z M 2.34375 0 "/></g></g></g><g fill="#ffffff" fill-opacity="1"><g transform="translate(94.31071, 23.316891)"><g><path d="M 7.515625 0.25 C 5.554688 0.25 3.960938 -0.347656 2.734375 -1.546875 C 1.503906 -2.753906 0.890625 -4.351562 0.890625 -6.34375 L 0.890625 -6.6875 C 0.890625 -8.03125 1.144531 -9.226562 1.65625 -10.28125 C 2.175781 -11.34375 2.910156 -12.160156 3.859375 -12.734375 C 4.816406 -13.304688 5.898438 -13.59375 7.109375 -13.59375 C 8.929688 -13.59375 10.367188 -13.015625 11.421875 -11.859375 C 12.472656 -10.710938 13 -9.082031 13 -6.96875 L 13 -5.515625 L 4.5 -5.515625 C 4.613281 -4.640625 4.957031 -3.9375 5.53125 -3.40625 C 6.113281 -2.882812 6.851562 -2.625 7.75 -2.625 C 9.113281 -2.625 10.179688 -3.125 10.953125 -4.125 L 12.71875 -2.15625 C 12.175781 -1.394531 11.445312 -0.800781 10.53125 -0.375 C 9.625 0.0390625 8.617188 0.25 7.515625 0.25 Z M 7.109375 -10.703125 C 6.398438 -10.703125 5.820312 -10.460938 5.375 -9.984375 C 4.9375 -9.503906 4.65625 -8.820312 4.53125 -7.9375 L 9.5 -7.9375 L 9.5 -8.21875 C 9.476562 -9.007812 9.257812 -9.617188 8.84375 -10.046875 C 8.4375 -10.484375 7.859375 -10.703125 7.109375 -10.703125 Z M 7.109375 -10.703125 "/></g></g></g><g fill="#ffffff" fill-opacity="1"><g transform="translate(107.960308, 23.316891)"><g><path d="M 7.515625 0.25 C 5.554688 0.25 3.960938 -0.347656 2.734375 -1.546875 C 1.503906 -2.753906 0.890625 -4.351562 0.890625 -6.34375 L 0.890625 -6.6875 C 0.890625 -8.03125 1.144531 -9.226562 1.65625 -10.28125 C 2.175781 -11.34375 2.910156 -12.160156 3.859375 -12.734375 C 4.816406 -13.304688 5.898438 -13.59375 7.109375 -13.59375 C 8.929688 -13.59375 10.367188 -13.015625 11.421875 -11.859375 C 12.472656 -10.710938 13 -9.082031 13 -6.96875 L 13 -5.515625 L 4.5 -5.515625 C 4.613281 -4.640625 4.957031 -3.9375 5.53125 -3.40625 C 6.113281 -2.882812 6.851562 -2.625 7.75 -2.625 C 9.113281 -2.625 10.179688 -3.125 10.953125 -4.125 L 12.71875 -2.15625 C 12.175781 -1.394531 11.445312 -0.800781 10.53125 -0.375 C 9.625 0.0390625 8.617188 0.25 7.515625 0.25 Z M 7.109375 -10.703125 C 6.398438 -10.703125 5.820312 -10.460938 5.375 -9.984375 C 4.9375 -9.503906 4.65625 -8.820312 4.53125 -7.9375 L 9.5 -7.9375 L 9.5 -8.21875 C 9.476562 -9.007812 9.257812 -9.617188 8.84375 -10.046875 C 8.4375 -10.484375 7.859375 -10.703125 7.109375 -10.703125 Z M 7.109375 -10.703125 "/></g></g></g></svg>