<svg xmlns="http://www.w3.org/2000/svg" xmlns:xlink="http://www.w3.org/1999/xlink" width="170" zoomAndPan="magnify" viewBox="0 0 127.5 30.000001" height="40" preserveAspectRatio="xMidYMid meet" version="1.0"><defs><g/><clipPath id="id1"><path d="M 3 0 L 31.6875 0 L 31.6875 29 L 3 29 Z M 3 0 " clip-rule="nonzero"/></clipPath><clipPath id="id2"><path d="M 1.816406 22 L 9 22 L 9 29 L 1.816406 29 Z M 1.816406 22 " clip-rule="nonzero"/></clipPath></defs><g clip-path="url(#id1)"><path fill="#e5e4e3" d="M 31.6875 14.292969 C 31.6875 15.230469 31.597656 16.160156 31.417969 17.082031 C 31.238281 18 30.96875 18.894531 30.613281 19.761719 C 30.257812 20.628906 29.824219 21.453125 29.308594 22.230469 C 28.792969 23.011719 28.207031 23.734375 27.546875 24.398438 C 26.890625 25.058594 26.179688 25.652344 25.40625 26.171875 C 24.636719 26.695312 23.820312 27.136719 22.960938 27.492188 C 22.105469 27.851562 21.222656 28.125 20.3125 28.308594 C 19.398438 28.488281 18.480469 28.582031 17.550781 28.582031 C 16.625 28.582031 15.707031 28.488281 14.792969 28.308594 C 13.882812 28.125 13 27.851562 12.144531 27.492188 C 11.285156 27.136719 10.46875 26.695312 9.699219 26.171875 C 8.925781 25.652344 8.214844 25.058594 7.558594 24.398438 C 6.898438 23.734375 6.3125 23.011719 5.796875 22.230469 C 5.28125 21.453125 4.847656 20.628906 4.492188 19.761719 C 4.136719 18.894531 3.867188 18 3.6875 17.082031 C 3.507812 16.160156 3.417969 15.230469 3.417969 14.292969 C 3.417969 13.355469 3.507812 12.425781 3.6875 11.507812 C 3.867188 10.585938 4.136719 9.691406 4.492188 8.828125 C 4.847656 7.960938 5.28125 7.136719 5.796875 6.355469 C 6.3125 5.578125 6.898438 4.855469 7.558594 4.191406 C 8.214844 3.527344 8.925781 2.9375 9.699219 2.414062 C 10.46875 1.894531 11.285156 1.453125 12.144531 1.09375 C 13 0.734375 13.882812 0.464844 14.792969 0.28125 C 15.707031 0.0976562 16.625 0.0078125 17.550781 0.0078125 C 18.480469 0.0078125 19.398438 0.0976562 20.3125 0.28125 C 21.222656 0.464844 22.105469 0.734375 22.960938 1.09375 C 23.820312 1.453125 24.636719 1.894531 25.40625 2.414062 C 26.179688 2.9375 26.890625 3.527344 27.546875 4.191406 C 28.207031 4.855469 28.792969 5.578125 29.308594 6.355469 C 29.824219 7.136719 30.257812 7.960938 30.613281 8.828125 C 30.96875 9.691406 31.238281 10.585938 31.417969 11.507812 C 31.597656 12.425781 31.6875 13.355469 31.6875 14.292969 Z M 31.6875 14.292969 " fill-opacity="1" fill-rule="nonzero"/></g><path fill="#d7b086" d="M 29.515625 14.304688 C 29.515625 15.09375 29.441406 15.871094 29.289062 16.644531 C 29.136719 17.417969 28.910156 18.167969 28.613281 18.898438 C 28.3125 19.625 27.949219 20.316406 27.515625 20.972656 C 27.082031 21.628906 26.589844 22.234375 26.039062 22.789062 C 25.488281 23.347656 24.886719 23.84375 24.238281 24.28125 C 23.589844 24.722656 22.90625 25.089844 22.183594 25.390625 C 21.464844 25.695312 20.722656 25.921875 19.957031 26.074219 C 19.191406 26.230469 18.421875 26.304688 17.640625 26.304688 C 16.859375 26.304688 16.089844 26.230469 15.324219 26.074219 C 14.558594 25.921875 13.816406 25.695312 13.097656 25.390625 C 12.375 25.089844 11.691406 24.722656 11.042969 24.28125 C 10.394531 23.84375 9.796875 23.347656 9.242188 22.789062 C 8.691406 22.234375 8.199219 21.628906 7.765625 20.972656 C 7.332031 20.316406 6.96875 19.625 6.667969 18.898438 C 6.371094 18.167969 6.144531 17.417969 5.992188 16.644531 C 5.839844 15.871094 5.765625 15.09375 5.765625 14.304688 C 5.765625 13.515625 5.839844 12.734375 5.992188 11.960938 C 6.144531 11.191406 6.371094 10.4375 6.667969 9.710938 C 6.96875 8.984375 7.332031 8.292969 7.765625 7.636719 C 8.199219 6.980469 8.691406 6.375 9.242188 5.816406 C 9.796875 5.261719 10.394531 4.761719 11.042969 4.324219 C 11.691406 3.886719 12.375 3.515625 13.097656 3.214844 C 13.816406 2.914062 14.558594 2.6875 15.324219 2.53125 C 16.089844 2.378906 16.859375 2.300781 17.640625 2.300781 C 18.421875 2.300781 19.191406 2.378906 19.957031 2.53125 C 20.722656 2.6875 21.464844 2.914062 22.183594 3.214844 C 22.90625 3.515625 23.589844 3.886719 24.238281 4.324219 C 24.886719 4.761719 25.488281 5.261719 26.039062 5.816406 C 26.589844 6.375 27.082031 6.980469 27.515625 7.636719 C 27.949219 8.292969 28.3125 8.984375 28.613281 9.710938 C 28.910156 10.4375 29.136719 11.191406 29.289062 11.960938 C 29.441406 12.734375 29.515625 13.515625 29.515625 14.304688 Z M 29.515625 14.304688 " fill-opacity="1" fill-rule="nonzero"/><g clip-path="url(#id2)"><path fill="#e5e4e3" d="M 2.691406 28.605469 L 2.445312 28.378906 C 1.859375 27.84375 1.816406 26.921875 2.34375 26.332031 L 5.597656 22.699219 C 6.128906 22.105469 7.039062 22.0625 7.625 22.597656 L 7.871094 22.824219 C 8.457031 23.359375 8.5 24.277344 7.972656 24.871094 L 4.71875 28.503906 C 4.1875 29.09375 3.277344 29.140625 2.691406 28.605469 Z M 2.691406 28.605469 " fill-opacity="1" fill-rule="nonzero"/></g><path fill="#382317" d="M 15.691406 5.605469 C 15.863281 6 16.160156 6.683594 15.886719 7.148438 C 15.589844 7.660156 14.847656 7.492188 13.675781 7.722656 C 12.96875 7.863281 11.253906 8.207031 10.503906 9.328125 C 9.78125 10.410156 10.6875 11.132812 10.054688 12.847656 C 9.484375 14.386719 8.5625 14.316406 8.410156 15.539062 C 8.269531 16.65625 9.007812 16.890625 9.230469 18.726562 C 9.398438 20.117188 9.011719 20.285156 9.230469 21.160156 C 9.644531 22.820312 11.398438 23.707031 12.460938 24.246094 C 12.949219 24.496094 14.984375 25.476562 17.90625 25.335938 C 19.09375 25.277344 22.09375 25.132812 24.757812 22.824219 C 25.058594 22.5625 28.410156 19.558594 28.359375 14.769531 C 28.332031 11.96875 27.15625 9.976562 26.714844 9.246094 C 25.367188 7.023438 23.597656 5.886719 21.957031 4.835938 C 20.214844 3.714844 19.160156 3.453125 18.804688 3.371094 C 16.777344 2.910156 14.621094 3.265625 14.5 3.886719 C 14.421875 4.273438 15.195312 4.464844 15.691406 5.605469 Z M 15.691406 5.605469 " fill-opacity="1" fill-rule="nonzero"/><path fill="#382317" d="M 12.933594 4.359375 C 12.933594 4.503906 12.859375 4.578125 12.714844 4.578125 C 12.574219 4.578125 12.5 4.503906 12.5 4.359375 C 12.5 4.214844 12.574219 4.140625 12.714844 4.140625 C 12.859375 4.140625 12.933594 4.214844 12.933594 4.359375 Z M 12.933594 4.359375 " fill-opacity="1" fill-rule="nonzero"/><path fill="#382317" d="M 12.835938 5.300781 C 12.835938 5.414062 12.777344 5.46875 12.667969 5.46875 C 12.554688 5.46875 12.5 5.414062 12.5 5.300781 C 12.5 5.1875 12.554688 5.132812 12.667969 5.132812 C 12.777344 5.132812 12.835938 5.1875 12.835938 5.300781 Z M 12.835938 5.300781 " fill-opacity="1" fill-rule="nonzero"/><path fill="#382317" d="M 11.269531 5.746094 C 11.269531 5.863281 11.207031 5.921875 11.089844 5.921875 C 10.972656 5.921875 10.914062 5.863281 10.914062 5.746094 C 10.914062 5.625 10.972656 5.566406 11.089844 5.566406 C 11.207031 5.566406 11.269531 5.625 11.269531 5.746094 Z M 11.269531 5.746094 " fill-opacity="1" fill-rule="nonzero"/><path fill="#382317" d="M 11.757812 6.894531 C 11.757812 7.011719 11.699219 7.070312 11.582031 7.070312 C 11.464844 7.070312 11.40625 7.011719 11.40625 6.894531 C 11.40625 6.773438 11.464844 6.714844 11.582031 6.714844 C 11.699219 6.714844 11.757812 6.773438 11.757812 6.894531 Z M 11.757812 6.894531 " fill-opacity="1" fill-rule="nonzero"/><path fill="#382317" d="M 14.753906 6.042969 C 14.753906 6.121094 14.714844 6.160156 14.636719 6.160156 C 14.558594 6.160156 14.519531 6.121094 14.519531 6.042969 C 14.519531 5.964844 14.558594 5.921875 14.636719 5.921875 C 14.714844 5.921875 14.753906 5.964844 14.753906 6.042969 Z M 14.753906 6.042969 " fill-opacity="1" fill-rule="nonzero"/><path fill="#382317" d="M 13.011719 6.191406 C 13.011719 6.289062 12.960938 6.339844 12.863281 6.339844 C 12.765625 6.339844 12.714844 6.289062 12.714844 6.191406 C 12.714844 6.089844 12.765625 6.042969 12.863281 6.042969 C 12.960938 6.042969 13.011719 6.089844 13.011719 6.191406 Z M 13.011719 6.191406 " fill-opacity="1" fill-rule="nonzero"/><path fill="#382317" d="M 12.089844 6.042969 C 12.089844 6.121094 12.050781 6.160156 11.972656 6.160156 C 11.894531 6.160156 11.855469 6.121094 11.855469 6.042969 C 11.855469 5.964844 11.894531 5.921875 11.972656 5.921875 C 12.050781 5.921875 12.089844 5.964844 12.089844 6.042969 Z M 12.089844 6.042969 " fill-opacity="1" fill-rule="nonzero"/><path fill="#382317" d="M 14.28125 4.707031 C 14.28125 4.792969 14.242188 4.835938 14.15625 4.835938 C 14.070312 4.835938 14.027344 4.792969 14.027344 4.707031 C 14.027344 4.621094 14.070312 4.578125 14.15625 4.578125 C 14.242188 4.578125 14.28125 4.621094 14.28125 4.707031 Z M 14.28125 4.707031 " fill-opacity="1" fill-rule="nonzero"/><path fill="#382317" d="M 11.464844 4.714844 C 11.464844 4.78125 11.429688 4.816406 11.367188 4.816406 C 11.300781 4.816406 11.269531 4.78125 11.269531 4.714844 C 11.269531 4.648438 11.300781 4.617188 11.367188 4.617188 C 11.429688 4.617188 11.464844 4.648438 11.464844 4.714844 Z M 11.464844 4.714844 " fill-opacity="1" fill-rule="nonzero"/><path fill="#382317" d="M 13.8125 5.429688 C 13.8125 5.519531 13.765625 5.566406 13.675781 5.566406 C 13.585938 5.566406 13.539062 5.519531 13.539062 5.429688 C 13.539062 5.335938 13.585938 5.289062 13.675781 5.289062 C 13.765625 5.289062 13.8125 5.335938 13.8125 5.429688 Z M 13.8125 5.429688 " fill-opacity="1" fill-rule="nonzero"/><path fill="#382317" d="M 10.113281 6.597656 C 10.113281 6.667969 10.085938 6.726562 10.039062 6.777344 C 9.988281 6.828125 9.929688 6.851562 9.859375 6.851562 C 9.789062 6.851562 9.726562 6.828125 9.679688 6.777344 C 9.628906 6.726562 9.601562 6.667969 9.601562 6.597656 C 9.601562 6.523438 9.628906 6.464844 9.679688 6.414062 C 9.726562 6.363281 9.789062 6.339844 9.859375 6.339844 C 9.929688 6.339844 9.988281 6.363281 10.039062 6.414062 C 10.085938 6.464844 10.113281 6.523438 10.113281 6.597656 Z M 10.113281 6.597656 " fill-opacity="1" fill-rule="nonzero"/><path fill="#382317" d="M 9.859375 7.871094 C 9.859375 7.957031 9.816406 8 9.730469 8 C 9.644531 8 9.601562 7.957031 9.601562 7.871094 C 9.601562 7.785156 9.644531 7.742188 9.730469 7.742188 C 9.816406 7.742188 9.859375 7.785156 9.859375 7.871094 Z M 9.859375 7.871094 " fill-opacity="1" fill-rule="nonzero"/><path fill="#382317" d="M 11.347656 7.785156 C 11.347656 7.929688 11.273438 8 11.128906 8 C 10.988281 8 10.914062 7.929688 10.914062 7.785156 C 10.914062 7.636719 10.988281 7.566406 11.128906 7.566406 C 11.273438 7.566406 11.347656 7.636719 11.347656 7.785156 Z M 11.347656 7.785156 " fill-opacity="1" fill-rule="nonzero"/><path fill="#382317" d="M 14.636719 7.070312 C 14.636719 7.191406 14.578125 7.25 14.460938 7.25 C 14.339844 7.25 14.28125 7.191406 14.28125 7.070312 C 14.28125 6.953125 14.339844 6.894531 14.460938 6.894531 C 14.578125 6.894531 14.636719 6.953125 14.636719 7.070312 Z M 14.636719 7.070312 " fill-opacity="1" fill-rule="nonzero"/><path fill="#382317" d="M 13.363281 6.65625 C 13.363281 6.695312 13.34375 6.714844 13.304688 6.714844 C 13.265625 6.714844 13.246094 6.695312 13.246094 6.65625 C 13.246094 6.617188 13.265625 6.597656 13.304688 6.597656 C 13.34375 6.597656 13.363281 6.617188 13.363281 6.65625 Z M 13.363281 6.65625 " fill-opacity="1" fill-rule="nonzero"/><path fill="#382317" d="M 12.835938 7.496094 C 12.835938 7.554688 12.804688 7.585938 12.746094 7.585938 C 12.6875 7.585938 12.65625 7.554688 12.65625 7.496094 C 12.65625 7.4375 12.6875 7.40625 12.746094 7.40625 C 12.804688 7.40625 12.835938 7.4375 12.835938 7.496094 Z M 12.835938 7.496094 " fill-opacity="1" fill-rule="nonzero"/><path fill="#382317" d="M 8.390625 8.40625 C 8.390625 8.53125 8.328125 8.59375 8.203125 8.59375 C 8.078125 8.59375 8.015625 8.53125 8.015625 8.40625 C 8.015625 8.28125 8.078125 8.21875 8.203125 8.21875 C 8.328125 8.21875 8.390625 8.28125 8.390625 8.40625 Z M 8.390625 8.40625 " fill-opacity="1" fill-rule="nonzero"/><path fill="#382317" d="M 9.25 9.4375 C 9.25 9.507812 9.214844 9.542969 9.144531 9.542969 C 9.070312 9.542969 9.035156 9.507812 9.035156 9.4375 C 9.035156 9.363281 9.070312 9.328125 9.144531 9.328125 C 9.214844 9.328125 9.25 9.363281 9.25 9.4375 Z M 9.25 9.4375 " fill-opacity="1" fill-rule="nonzero"/><path fill="#382317" d="M 9.328125 8.496094 C 9.328125 8.5625 9.296875 8.59375 9.230469 8.59375 C 9.167969 8.59375 9.132812 8.5625 9.132812 8.496094 C 9.132812 8.429688 9.167969 8.398438 9.230469 8.398438 C 9.296875 8.398438 9.328125 8.429688 9.328125 8.496094 Z M 9.328125 8.496094 " fill-opacity="1" fill-rule="nonzero"/><path fill="#382317" d="M 7.722656 9.882812 C 7.722656 9.933594 7.699219 9.960938 7.644531 9.960938 C 7.59375 9.960938 7.566406 9.933594 7.566406 9.882812 C 7.566406 9.828125 7.59375 9.800781 7.644531 9.800781 C 7.699219 9.800781 7.722656 9.828125 7.722656 9.882812 Z M 7.722656 9.882812 " fill-opacity="1" fill-rule="nonzero"/><path fill="#382317" d="M 8.214844 10.921875 C 8.214844 11.03125 8.15625 11.089844 8.046875 11.089844 C 7.9375 11.089844 7.878906 11.03125 7.878906 10.921875 C 7.878906 10.808594 7.9375 10.75 8.046875 10.75 C 8.15625 10.75 8.214844 10.808594 8.214844 10.921875 Z M 8.214844 10.921875 " fill-opacity="1" fill-rule="nonzero"/><path fill="#382317" d="M 8.390625 11.980469 C 8.390625 12.042969 8.355469 12.078125 8.292969 12.078125 C 8.226562 12.078125 8.195312 12.042969 8.195312 11.980469 C 8.195312 11.914062 8.226562 11.878906 8.292969 11.878906 C 8.355469 11.878906 8.390625 11.914062 8.390625 11.980469 Z M 8.390625 11.980469 " fill-opacity="1" fill-rule="nonzero"/><path fill="#382317" d="M 7.722656 12.691406 C 7.722656 12.785156 7.679688 12.828125 7.585938 12.828125 C 7.496094 12.828125 7.449219 12.785156 7.449219 12.691406 C 7.449219 12.597656 7.496094 12.550781 7.585938 12.550781 C 7.679688 12.550781 7.722656 12.597656 7.722656 12.691406 Z M 7.722656 12.691406 " fill-opacity="1" fill-rule="nonzero"/><path fill="#382317" d="M 7.253906 13.679688 C 7.253906 13.734375 7.226562 13.757812 7.175781 13.757812 C 7.125 13.757812 7.097656 13.734375 7.097656 13.679688 C 7.097656 13.628906 7.125 13.601562 7.175781 13.601562 C 7.226562 13.601562 7.253906 13.628906 7.253906 13.679688 Z M 7.253906 13.679688 " fill-opacity="1" fill-rule="nonzero"/><path fill="#382317" d="M 6.863281 12.058594 C 6.863281 12.175781 6.804688 12.234375 6.6875 12.234375 C 6.570312 12.234375 6.507812 12.175781 6.507812 12.058594 C 6.507812 11.9375 6.570312 11.878906 6.6875 11.878906 C 6.804688 11.878906 6.863281 11.9375 6.863281 12.058594 Z M 6.863281 12.058594 " fill-opacity="1" fill-rule="nonzero"/><path fill="#382317" d="M 6.332031 13.175781 C 6.332031 13.289062 6.277344 13.34375 6.167969 13.34375 C 6.054688 13.34375 6 13.289062 6 13.175781 C 6 13.0625 6.054688 13.007812 6.167969 13.007812 C 6.277344 13.007812 6.332031 13.0625 6.332031 13.175781 Z M 6.332031 13.175781 " fill-opacity="1" fill-rule="nonzero"/><path fill="#382317" d="M 6.960938 13.097656 C 6.960938 13.15625 6.929688 13.1875 6.871094 13.1875 C 6.8125 13.1875 6.785156 13.15625 6.785156 13.097656 C 6.785156 13.039062 6.8125 13.007812 6.871094 13.007812 C 6.929688 13.007812 6.960938 13.039062 6.960938 13.097656 Z M 6.960938 13.097656 " fill-opacity="1" fill-rule="nonzero"/><path fill="#382317" d="M 8.605469 12.890625 C 8.605469 13.019531 8.539062 13.085938 8.410156 13.085938 C 8.277344 13.085938 8.214844 13.019531 8.214844 12.890625 C 8.214844 12.757812 8.277344 12.691406 8.410156 12.691406 C 8.539062 12.691406 8.605469 12.757812 8.605469 12.890625 Z M 8.605469 12.890625 " fill-opacity="1" fill-rule="nonzero"/><path fill="#382317" d="M 8.410156 13.917969 C 8.410156 14.023438 8.355469 14.078125 8.253906 14.078125 C 8.148438 14.078125 8.09375 14.023438 8.09375 13.917969 C 8.09375 13.8125 8.148438 13.757812 8.253906 13.757812 C 8.355469 13.757812 8.410156 13.8125 8.410156 13.917969 Z M 8.410156 13.917969 " fill-opacity="1" fill-rule="nonzero"/><path fill="#382317" d="M 9.601562 11.980469 C 9.601562 12.136719 9.523438 12.214844 9.367188 12.214844 C 9.210938 12.214844 9.132812 12.136719 9.132812 11.980469 C 9.132812 11.820312 9.210938 11.742188 9.367188 11.742188 C 9.523438 11.742188 9.601562 11.820312 9.601562 11.980469 Z M 9.601562 11.980469 " fill-opacity="1" fill-rule="nonzero"/><path fill="#382317" d="M 8.898438 11 C 8.898438 11.058594 8.867188 11.089844 8.808594 11.089844 C 8.75 11.089844 8.722656 11.058594 8.722656 11 C 8.722656 10.941406 8.75 10.910156 8.808594 10.910156 C 8.867188 10.910156 8.898438 10.941406 8.898438 11 Z M 8.898438 11 " fill-opacity="1" fill-rule="nonzero"/><path fill="#382317" d="M 7.175781 11.070312 C 7.175781 11.175781 7.125 11.226562 7.019531 11.226562 C 6.914062 11.226562 6.863281 11.175781 6.863281 11.070312 C 6.863281 10.964844 6.914062 10.910156 7.019531 10.910156 C 7.125 10.910156 7.175781 10.964844 7.175781 11.070312 Z M 7.175781 11.070312 " fill-opacity="1" fill-rule="nonzero"/><path fill="#382317" d="M 8.917969 10.21875 C 8.917969 10.324219 8.867188 10.375 8.761719 10.375 C 8.65625 10.375 8.605469 10.324219 8.605469 10.21875 C 8.605469 10.113281 8.65625 10.058594 8.761719 10.058594 C 8.867188 10.058594 8.917969 10.113281 8.917969 10.21875 Z M 8.917969 10.21875 " fill-opacity="1" fill-rule="nonzero"/><path fill="#382317" d="M 9.839844 9.484375 C 9.839844 9.523438 9.820312 9.542969 9.78125 9.542969 C 9.742188 9.542969 9.722656 9.523438 9.722656 9.484375 C 9.722656 9.445312 9.742188 9.425781 9.78125 9.425781 C 9.820312 9.425781 9.839844 9.445312 9.839844 9.484375 Z M 9.839844 9.484375 " fill-opacity="1" fill-rule="nonzero"/><path fill="#382317" d="M 9.859375 10.683594 C 9.859375 10.730469 9.835938 10.75 9.789062 10.75 C 9.742188 10.75 9.722656 10.730469 9.722656 10.683594 C 9.722656 10.636719 9.742188 10.613281 9.789062 10.613281 C 9.835938 10.613281 9.859375 10.636719 9.859375 10.683594 Z M 9.859375 10.683594 " fill-opacity="1" fill-rule="nonzero"/><path fill="#382317" d="M 7.175781 14.601562 C 7.175781 14.671875 7.140625 14.710938 7.066406 14.710938 C 6.996094 14.710938 6.960938 14.671875 6.960938 14.601562 C 6.960938 14.527344 6.996094 14.492188 7.066406 14.492188 C 7.140625 14.492188 7.175781 14.527344 7.175781 14.601562 Z M 7.175781 14.601562 " fill-opacity="1" fill-rule="nonzero"/><path fill="#382317" d="M 7.253906 15.421875 C 7.253906 15.488281 7.222656 15.519531 7.15625 15.519531 C 7.089844 15.519531 7.058594 15.488281 7.058594 15.421875 C 7.058594 15.355469 7.089844 15.324219 7.15625 15.324219 C 7.222656 15.324219 7.253906 15.355469 7.253906 15.421875 Z M 7.253906 15.421875 " fill-opacity="1" fill-rule="nonzero"/><path fill="#382317" d="M 6.507812 15.085938 C 6.507812 15.179688 6.464844 15.222656 6.371094 15.222656 C 6.28125 15.222656 6.234375 15.179688 6.234375 15.085938 C 6.234375 14.992188 6.28125 14.945312 6.371094 14.945312 C 6.464844 14.945312 6.507812 14.992188 6.507812 15.085938 Z M 6.507812 15.085938 " fill-opacity="1" fill-rule="nonzero"/><path fill="#382317" d="M 6.15625 13.996094 C 6.15625 14.050781 6.132812 14.078125 6.078125 14.078125 C 6.027344 14.078125 6 14.050781 6 13.996094 C 6 13.945312 6.027344 13.917969 6.078125 13.917969 C 6.132812 13.917969 6.15625 13.945312 6.15625 13.996094 Z M 6.15625 13.996094 " fill-opacity="1" fill-rule="nonzero"/><path fill="#382317" d="M 6.785156 16.175781 C 6.785156 16.265625 6.738281 16.3125 6.648438 16.3125 C 6.554688 16.3125 6.507812 16.265625 6.507812 16.175781 C 6.507812 16.082031 6.554688 16.035156 6.648438 16.035156 C 6.738281 16.035156 6.785156 16.082031 6.785156 16.175781 Z M 6.785156 16.175781 " fill-opacity="1" fill-rule="nonzero"/><path fill="#382317" d="M 8.15625 15.085938 C 8.15625 15.179688 8.109375 15.222656 8.015625 15.222656 C 7.925781 15.222656 7.878906 15.179688 7.878906 15.085938 C 7.878906 14.992188 7.925781 14.945312 8.015625 14.945312 C 8.109375 14.945312 8.15625 14.992188 8.15625 15.085938 Z M 8.15625 15.085938 " fill-opacity="1" fill-rule="nonzero"/><path fill="#382317" d="M 9.308594 13.097656 C 9.308594 13.15625 9.28125 13.1875 9.222656 13.1875 C 9.164062 13.1875 9.132812 13.15625 9.132812 13.097656 C 9.132812 13.039062 9.164062 13.007812 9.222656 13.007812 C 9.28125 13.007812 9.308594 13.039062 9.308594 13.097656 Z M 9.308594 13.097656 " fill-opacity="1" fill-rule="nonzero"/><path fill="#382317" d="M 7.253906 17.351562 C 7.253906 17.449219 7.203125 17.5 7.105469 17.5 C 7.007812 17.5 6.960938 17.449219 6.960938 17.351562 C 6.960938 17.253906 7.007812 17.203125 7.105469 17.203125 C 7.203125 17.203125 7.253906 17.253906 7.253906 17.351562 Z M 7.253906 17.351562 " fill-opacity="1" fill-rule="nonzero"/><path fill="#382317" d="M 7.820312 16.539062 C 7.820312 16.597656 7.792969 16.628906 7.734375 16.628906 C 7.675781 16.628906 7.644531 16.597656 7.644531 16.539062 C 7.644531 16.480469 7.675781 16.449219 7.734375 16.449219 C 7.792969 16.449219 7.820312 16.480469 7.820312 16.539062 Z M 7.820312 16.539062 " fill-opacity="1" fill-rule="nonzero"/><path fill="#382317" d="M 7.820312 18.695312 C 7.820312 18.824219 7.757812 18.886719 7.636719 18.886719 C 7.511719 18.886719 7.449219 18.824219 7.449219 18.695312 C 7.449219 18.570312 7.511719 18.507812 7.636719 18.507812 C 7.757812 18.507812 7.820312 18.570312 7.820312 18.695312 Z M 7.820312 18.695312 " fill-opacity="1" fill-rule="nonzero"/><path fill="#382317" d="M 8.46875 17.488281 C 8.46875 17.574219 8.425781 17.617188 8.339844 17.617188 C 8.253906 17.617188 8.214844 17.574219 8.214844 17.488281 C 8.214844 17.402344 8.253906 17.359375 8.339844 17.359375 C 8.425781 17.359375 8.46875 17.402344 8.46875 17.488281 Z M 8.46875 17.488281 " fill-opacity="1" fill-rule="nonzero"/><path fill="#382317" d="M 8.800781 18.675781 C 8.800781 18.789062 8.746094 18.84375 8.632812 18.84375 C 8.523438 18.84375 8.46875 18.789062 8.46875 18.675781 C 8.46875 18.566406 8.523438 18.507812 8.632812 18.507812 C 8.746094 18.507812 8.800781 18.566406 8.800781 18.675781 Z M 8.800781 18.675781 " fill-opacity="1" fill-rule="nonzero"/><path fill="#382317" d="M 8.214844 19.65625 C 8.214844 19.710938 8.1875 19.734375 8.136719 19.734375 C 8.082031 19.734375 8.054688 19.710938 8.054688 19.65625 C 8.054688 19.605469 8.082031 19.578125 8.136719 19.578125 C 8.1875 19.578125 8.214844 19.605469 8.214844 19.65625 Z M 8.214844 19.65625 " fill-opacity="1" fill-rule="nonzero"/><path fill="#382317" d="M 8.292969 20.46875 C 8.292969 20.535156 8.257812 20.566406 8.195312 20.566406 C 8.128906 20.566406 8.09375 20.535156 8.09375 20.46875 C 8.09375 20.402344 8.128906 20.371094 8.195312 20.371094 C 8.257812 20.371094 8.292969 20.402344 8.292969 20.46875 Z M 8.292969 20.46875 " fill-opacity="1" fill-rule="nonzero"/><path fill="#382317" d="M 8.898438 19.695312 C 8.898438 19.722656 8.886719 19.734375 8.859375 19.734375 C 8.832031 19.734375 8.820312 19.722656 8.820312 19.695312 C 8.820312 19.671875 8.832031 19.65625 8.859375 19.65625 C 8.886719 19.65625 8.898438 19.671875 8.898438 19.695312 Z M 8.898438 19.695312 " fill-opacity="1" fill-rule="nonzero"/><path fill="#382317" d="M 7.449219 19.269531 C 7.449219 19.304688 7.433594 19.320312 7.402344 19.320312 C 7.367188 19.320312 7.351562 19.304688 7.351562 19.269531 C 7.351562 19.238281 7.367188 19.222656 7.402344 19.222656 C 7.433594 19.222656 7.449219 19.238281 7.449219 19.269531 Z M 7.449219 19.269531 " fill-opacity="1" fill-rule="nonzero"/><path fill="#382317" d="M 6.863281 17.953125 C 6.863281 17.980469 6.847656 17.996094 6.824219 17.996094 C 6.796875 17.996094 6.785156 17.980469 6.785156 17.953125 C 6.785156 17.929688 6.796875 17.914062 6.824219 17.914062 C 6.847656 17.914062 6.863281 17.929688 6.863281 17.953125 Z M 6.863281 17.953125 " fill-opacity="1" fill-rule="nonzero"/><path fill="#382317" d="M 6.507812 16.875 C 6.507812 16.921875 6.488281 16.945312 6.441406 16.945312 C 6.394531 16.945312 6.371094 16.921875 6.371094 16.875 C 6.371094 16.832031 6.394531 16.808594 6.441406 16.808594 C 6.488281 16.808594 6.507812 16.832031 6.507812 16.875 Z M 6.507812 16.875 " fill-opacity="1" fill-rule="nonzero"/><path fill="#382317" d="M 7.820312 18.074219 C 7.820312 18.152344 7.78125 18.191406 7.703125 18.191406 C 7.625 18.191406 7.585938 18.152344 7.585938 18.074219 C 7.585938 17.996094 7.625 17.953125 7.703125 17.953125 C 7.78125 17.953125 7.820312 17.996094 7.820312 18.074219 Z M 7.820312 18.074219 " fill-opacity="1" fill-rule="nonzero"/><path fill="#382317" d="M 7.820312 15.789062 C 7.820312 15.847656 7.792969 15.878906 7.734375 15.878906 C 7.675781 15.878906 7.644531 15.847656 7.644531 15.789062 C 7.644531 15.730469 7.675781 15.699219 7.734375 15.699219 C 7.792969 15.699219 7.820312 15.730469 7.820312 15.789062 Z M 7.820312 15.789062 " fill-opacity="1" fill-rule="nonzero"/><path fill="#382317" d="M 8.46875 9.367188 C 8.46875 9.394531 8.453125 9.40625 8.429688 9.40625 C 8.402344 9.40625 8.390625 9.394531 8.390625 9.367188 C 8.390625 9.339844 8.402344 9.328125 8.429688 9.328125 C 8.453125 9.328125 8.46875 9.339844 8.46875 9.367188 Z M 8.46875 9.367188 " fill-opacity="1" fill-rule="nonzero"/><path fill="#382317" d="M 13.753906 3.695312 C 13.753906 3.769531 13.71875 3.804688 13.648438 3.804688 C 13.574219 3.804688 13.539062 3.769531 13.539062 3.695312 C 13.539062 3.625 13.574219 3.589844 13.648438 3.589844 C 13.71875 3.589844 13.753906 3.625 13.753906 3.695312 Z M 13.753906 3.695312 " fill-opacity="1" fill-rule="nonzero"/><g fill="#000000" fill-opacity="1"><g transform="translate(68.482774, 16.879321)"><g><path d="M 1.4375 -1.34375 L 2.3125 -1.34375 L 2.3125 -0.09375 C 2.175781 -0.0507812 2.039062 -0.0195312 1.90625 0 C 1.769531 0.0195312 1.609375 0.03125 1.421875 0.03125 C 1.160156 0.03125 0.941406 -0.0195312 0.765625 -0.125 C 0.585938 -0.226562 0.453125 -0.375 0.359375 -0.5625 C 0.265625 -0.757812 0.21875 -0.992188 0.21875 -1.265625 C 0.21875 -1.523438 0.269531 -1.753906 0.375 -1.953125 C 0.476562 -2.148438 0.625 -2.300781 0.8125 -2.40625 C 1.007812 -2.507812 1.25 -2.5625 1.53125 -2.5625 C 1.664062 -2.5625 1.796875 -2.546875 1.921875 -2.515625 C 2.054688 -2.492188 2.175781 -2.460938 2.28125 -2.421875 L 2.15625 -2.140625 C 2.070312 -2.179688 1.972656 -2.210938 1.859375 -2.234375 C 1.742188 -2.265625 1.628906 -2.28125 1.515625 -2.28125 C 1.210938 -2.28125 0.972656 -2.1875 0.796875 -2 C 0.628906 -1.820312 0.546875 -1.578125 0.546875 -1.265625 C 0.546875 -1.066406 0.578125 -0.890625 0.640625 -0.734375 C 0.710938 -0.578125 0.816406 -0.453125 0.953125 -0.359375 C 1.085938 -0.273438 1.269531 -0.234375 1.5 -0.234375 C 1.613281 -0.234375 1.707031 -0.238281 1.78125 -0.25 C 1.863281 -0.269531 1.9375 -0.285156 2 -0.296875 L 2 -1.046875 L 1.4375 -1.046875 Z M 1.4375 -1.34375 "/></g></g></g><g fill="#000000" fill-opacity="1"><g transform="translate(71.055675, 16.879321)"><g><path d="M 1.953125 -0.953125 C 1.953125 -0.640625 1.867188 -0.394531 1.703125 -0.21875 C 1.546875 -0.0507812 1.332031 0.03125 1.0625 0.03125 C 0.894531 0.03125 0.742188 -0.00390625 0.609375 -0.078125 C 0.484375 -0.148438 0.378906 -0.257812 0.296875 -0.40625 C 0.222656 -0.5625 0.1875 -0.742188 0.1875 -0.953125 C 0.1875 -1.265625 0.265625 -1.503906 0.421875 -1.671875 C 0.585938 -1.847656 0.804688 -1.9375 1.078125 -1.9375 C 1.242188 -1.9375 1.394531 -1.894531 1.53125 -1.8125 C 1.664062 -1.738281 1.769531 -1.628906 1.84375 -1.484375 C 1.914062 -1.335938 1.953125 -1.160156 1.953125 -0.953125 Z M 0.515625 -0.953125 C 0.515625 -0.722656 0.554688 -0.539062 0.640625 -0.40625 C 0.734375 -0.28125 0.878906 -0.21875 1.078125 -0.21875 C 1.265625 -0.21875 1.398438 -0.28125 1.484375 -0.40625 C 1.578125 -0.539062 1.625 -0.722656 1.625 -0.953125 C 1.625 -1.179688 1.578125 -1.359375 1.484375 -1.484375 C 1.398438 -1.609375 1.265625 -1.671875 1.078125 -1.671875 C 0.878906 -1.671875 0.734375 -1.609375 0.640625 -1.484375 C 0.554688 -1.359375 0.515625 -1.179688 0.515625 -0.953125 Z M 0.515625 -0.953125 "/></g></g></g><g fill="#000000" fill-opacity="1"><g transform="translate(73.193861, 16.879321)"><g><path d="M 1.953125 -0.953125 C 1.953125 -0.640625 1.867188 -0.394531 1.703125 -0.21875 C 1.546875 -0.0507812 1.332031 0.03125 1.0625 0.03125 C 0.894531 0.03125 0.742188 -0.00390625 0.609375 -0.078125 C 0.484375 -0.148438 0.378906 -0.257812 0.296875 -0.40625 C 0.222656 -0.5625 0.1875 -0.742188 0.1875 -0.953125 C 0.1875 -1.265625 0.265625 -1.503906 0.421875 -1.671875 C 0.585938 -1.847656 0.804688 -1.9375 1.078125 -1.9375 C 1.242188 -1.9375 1.394531 -1.894531 1.53125 -1.8125 C 1.664062 -1.738281 1.769531 -1.628906 1.84375 -1.484375 C 1.914062 -1.335938 1.953125 -1.160156 1.953125 -0.953125 Z M 0.515625 -0.953125 C 0.515625 -0.722656 0.554688 -0.539062 0.640625 -0.40625 C 0.734375 -0.28125 0.878906 -0.21875 1.078125 -0.21875 C 1.265625 -0.21875 1.398438 -0.28125 1.484375 -0.40625 C 1.578125 -0.539062 1.625 -0.722656 1.625 -0.953125 C 1.625 -1.179688 1.578125 -1.359375 1.484375 -1.484375 C 1.398438 -1.609375 1.265625 -1.671875 1.078125 -1.671875 C 0.878906 -1.671875 0.734375 -1.609375 0.640625 -1.484375 C 0.554688 -1.359375 0.515625 -1.179688 0.515625 -0.953125 Z M 0.515625 -0.953125 "/></g></g></g><g fill="#000000" fill-opacity="1"><g transform="translate(75.332048, 16.879321)"><g><path d="M 0.96875 0.03125 C 0.738281 0.03125 0.550781 -0.046875 0.40625 -0.203125 C 0.257812 -0.367188 0.1875 -0.617188 0.1875 -0.953125 C 0.1875 -1.273438 0.257812 -1.519531 0.40625 -1.6875 C 0.550781 -1.851562 0.742188 -1.9375 0.984375 -1.9375 C 1.128906 -1.9375 1.25 -1.910156 1.34375 -1.859375 C 1.4375 -1.804688 1.507812 -1.738281 1.5625 -1.65625 L 1.59375 -1.65625 C 1.582031 -1.6875 1.570312 -1.734375 1.5625 -1.796875 C 1.5625 -1.859375 1.5625 -1.90625 1.5625 -1.9375 L 1.5625 -2.703125 L 1.875 -2.703125 L 1.875 0 L 1.625 0 L 1.578125 -0.25 L 1.5625 -0.25 C 1.507812 -0.175781 1.4375 -0.109375 1.34375 -0.046875 C 1.25 0.00390625 1.125 0.03125 0.96875 0.03125 Z M 1.03125 -0.21875 C 1.226562 -0.21875 1.367188 -0.269531 1.453125 -0.375 C 1.535156 -0.488281 1.578125 -0.660156 1.578125 -0.890625 L 1.578125 -0.9375 C 1.578125 -1.175781 1.535156 -1.359375 1.453125 -1.484375 C 1.378906 -1.609375 1.234375 -1.671875 1.015625 -1.671875 C 0.847656 -1.671875 0.722656 -1.601562 0.640625 -1.46875 C 0.554688 -1.34375 0.515625 -1.164062 0.515625 -0.9375 C 0.515625 -0.707031 0.554688 -0.53125 0.640625 -0.40625 C 0.722656 -0.28125 0.851562 -0.21875 1.03125 -0.21875 Z M 1.03125 -0.21875 "/></g></g></g><g fill="#000000" fill-opacity="1"><g transform="translate(77.505581, 16.879321)"><g/></g></g><g fill="#000000" fill-opacity="1"><g transform="translate(78.424467, 16.879321)"><g><path d="M 1.421875 -2.28125 C 1.148438 -2.28125 0.9375 -2.1875 0.78125 -2 C 0.625 -1.820312 0.546875 -1.578125 0.546875 -1.265625 C 0.546875 -0.953125 0.617188 -0.703125 0.765625 -0.515625 C 0.910156 -0.335938 1.128906 -0.25 1.421875 -0.25 C 1.535156 -0.25 1.640625 -0.253906 1.734375 -0.265625 C 1.835938 -0.285156 1.9375 -0.3125 2.03125 -0.34375 L 2.03125 -0.0625 C 1.9375 -0.03125 1.835938 -0.0078125 1.734375 0 C 1.640625 0.0195312 1.519531 0.03125 1.375 0.03125 C 1.125 0.03125 0.910156 -0.0195312 0.734375 -0.125 C 0.554688 -0.226562 0.425781 -0.378906 0.34375 -0.578125 C 0.257812 -0.773438 0.21875 -1.003906 0.21875 -1.265625 C 0.21875 -1.523438 0.265625 -1.75 0.359375 -1.9375 C 0.453125 -2.132812 0.585938 -2.285156 0.765625 -2.390625 C 0.953125 -2.503906 1.175781 -2.5625 1.4375 -2.5625 C 1.695312 -2.5625 1.925781 -2.515625 2.125 -2.421875 L 2 -2.15625 C 1.925781 -2.1875 1.835938 -2.210938 1.734375 -2.234375 C 1.640625 -2.265625 1.535156 -2.28125 1.421875 -2.28125 Z M 1.421875 -2.28125 "/></g></g></g><g fill="#000000" fill-opacity="1"><g transform="translate(80.658075, 16.879321)"><g><path d="M 1.953125 -0.953125 C 1.953125 -0.640625 1.867188 -0.394531 1.703125 -0.21875 C 1.546875 -0.0507812 1.332031 0.03125 1.0625 0.03125 C 0.894531 0.03125 0.742188 -0.00390625 0.609375 -0.078125 C 0.484375 -0.148438 0.378906 -0.257812 0.296875 -0.40625 C 0.222656 -0.5625 0.1875 -0.742188 0.1875 -0.953125 C 0.1875 -1.265625 0.265625 -1.503906 0.421875 -1.671875 C 0.585938 -1.847656 0.804688 -1.9375 1.078125 -1.9375 C 1.242188 -1.9375 1.394531 -1.894531 1.53125 -1.8125 C 1.664062 -1.738281 1.769531 -1.628906 1.84375 -1.484375 C 1.914062 -1.335938 1.953125 -1.160156 1.953125 -0.953125 Z M 0.515625 -0.953125 C 0.515625 -0.722656 0.554688 -0.539062 0.640625 -0.40625 C 0.734375 -0.28125 0.878906 -0.21875 1.078125 -0.21875 C 1.265625 -0.21875 1.398438 -0.28125 1.484375 -0.40625 C 1.578125 -0.539062 1.625 -0.722656 1.625 -0.953125 C 1.625 -1.179688 1.578125 -1.359375 1.484375 -1.484375 C 1.398438 -1.609375 1.265625 -1.671875 1.078125 -1.671875 C 0.878906 -1.671875 0.734375 -1.609375 0.640625 -1.484375 C 0.554688 -1.359375 0.515625 -1.179688 0.515625 -0.953125 Z M 0.515625 -0.953125 "/></g></g></g><g fill="#000000" fill-opacity="1"><g transform="translate(82.796261, 16.879321)"><g><path d="M 1.171875 -1.65625 L 0.703125 -1.65625 L 0.703125 0 L 0.390625 0 L 0.390625 -1.65625 L 0.046875 -1.65625 L 0.046875 -1.8125 L 0.390625 -1.90625 L 0.390625 -2.015625 C 0.390625 -2.265625 0.441406 -2.441406 0.546875 -2.546875 C 0.648438 -2.660156 0.800781 -2.71875 1 -2.71875 C 1.070312 -2.71875 1.140625 -2.707031 1.203125 -2.6875 C 1.273438 -2.675781 1.332031 -2.664062 1.375 -2.65625 L 1.296875 -2.40625 C 1.253906 -2.414062 1.207031 -2.425781 1.15625 -2.4375 C 1.101562 -2.445312 1.050781 -2.453125 1 -2.453125 C 0.894531 -2.453125 0.816406 -2.414062 0.765625 -2.34375 C 0.722656 -2.28125 0.703125 -2.175781 0.703125 -2.03125 L 0.703125 -1.90625 L 1.171875 -1.90625 Z M 1.171875 -1.65625 "/></g></g></g><g fill="#000000" fill-opacity="1"><g transform="translate(84.012029, 16.879321)"><g><path d="M 1.171875 -1.65625 L 0.703125 -1.65625 L 0.703125 0 L 0.390625 0 L 0.390625 -1.65625 L 0.046875 -1.65625 L 0.046875 -1.8125 L 0.390625 -1.90625 L 0.390625 -2.015625 C 0.390625 -2.265625 0.441406 -2.441406 0.546875 -2.546875 C 0.648438 -2.660156 0.800781 -2.71875 1 -2.71875 C 1.070312 -2.71875 1.140625 -2.707031 1.203125 -2.6875 C 1.273438 -2.675781 1.332031 -2.664062 1.375 -2.65625 L 1.296875 -2.40625 C 1.253906 -2.414062 1.207031 -2.425781 1.15625 -2.4375 C 1.101562 -2.445312 1.050781 -2.453125 1 -2.453125 C 0.894531 -2.453125 0.816406 -2.414062 0.765625 -2.34375 C 0.722656 -2.28125 0.703125 -2.175781 0.703125 -2.03125 L 0.703125 -1.90625 L 1.171875 -1.90625 Z M 1.171875 -1.65625 "/></g></g></g><g fill="#000000" fill-opacity="1"><g transform="translate(85.227797, 16.879321)"><g><path d="M 1.03125 -1.9375 C 1.195312 -1.9375 1.335938 -1.898438 1.453125 -1.828125 C 1.566406 -1.753906 1.65625 -1.65625 1.71875 -1.53125 C 1.78125 -1.40625 1.8125 -1.253906 1.8125 -1.078125 L 1.8125 -0.890625 L 0.515625 -0.890625 C 0.523438 -0.671875 0.582031 -0.503906 0.6875 -0.390625 C 0.789062 -0.285156 0.9375 -0.234375 1.125 -0.234375 C 1.25 -0.234375 1.351562 -0.242188 1.4375 -0.265625 C 1.53125 -0.285156 1.628906 -0.316406 1.734375 -0.359375 L 1.734375 -0.09375 C 1.640625 -0.0507812 1.546875 -0.0195312 1.453125 0 C 1.359375 0.0195312 1.242188 0.03125 1.109375 0.03125 C 0.929688 0.03125 0.769531 -0.00390625 0.625 -0.078125 C 0.488281 -0.148438 0.378906 -0.253906 0.296875 -0.390625 C 0.222656 -0.535156 0.1875 -0.71875 0.1875 -0.9375 C 0.1875 -1.144531 0.222656 -1.320312 0.296875 -1.46875 C 0.367188 -1.625 0.46875 -1.738281 0.59375 -1.8125 C 0.71875 -1.894531 0.863281 -1.9375 1.03125 -1.9375 Z M 1.03125 -1.6875 C 0.882812 -1.6875 0.765625 -1.632812 0.671875 -1.53125 C 0.585938 -1.4375 0.539062 -1.304688 0.53125 -1.140625 L 1.5 -1.140625 C 1.488281 -1.296875 1.445312 -1.425781 1.375 -1.53125 C 1.300781 -1.632812 1.1875 -1.6875 1.03125 -1.6875 Z M 1.03125 -1.6875 "/></g></g></g><g fill="#000000" fill-opacity="1"><g transform="translate(87.221085, 16.879321)"><g><path d="M 1.03125 -1.9375 C 1.195312 -1.9375 1.335938 -1.898438 1.453125 -1.828125 C 1.566406 -1.753906 1.65625 -1.65625 1.71875 -1.53125 C 1.78125 -1.40625 1.8125 -1.253906 1.8125 -1.078125 L 1.8125 -0.890625 L 0.515625 -0.890625 C 0.523438 -0.671875 0.582031 -0.503906 0.6875 -0.390625 C 0.789062 -0.285156 0.9375 -0.234375 1.125 -0.234375 C 1.25 -0.234375 1.351562 -0.242188 1.4375 -0.265625 C 1.53125 -0.285156 1.628906 -0.316406 1.734375 -0.359375 L 1.734375 -0.09375 C 1.640625 -0.0507812 1.546875 -0.0195312 1.453125 0 C 1.359375 0.0195312 1.242188 0.03125 1.109375 0.03125 C 0.929688 0.03125 0.769531 -0.00390625 0.625 -0.078125 C 0.488281 -0.148438 0.378906 -0.253906 0.296875 -0.390625 C 0.222656 -0.535156 0.1875 -0.71875 0.1875 -0.9375 C 0.1875 -1.144531 0.222656 -1.320312 0.296875 -1.46875 C 0.367188 -1.625 0.46875 -1.738281 0.59375 -1.8125 C 0.71875 -1.894531 0.863281 -1.9375 1.03125 -1.9375 Z M 1.03125 -1.6875 C 0.882812 -1.6875 0.765625 -1.632812 0.671875 -1.53125 C 0.585938 -1.4375 0.539062 -1.304688 0.53125 -1.140625 L 1.5 -1.140625 C 1.488281 -1.296875 1.445312 -1.425781 1.375 -1.53125 C 1.300781 -1.632812 1.1875 -1.6875 1.03125 -1.6875 Z M 1.03125 -1.6875 "/></g></g></g></svg>